<svg width="34" height="34" viewBox="0 0 34 34" fill="none" xmlns="http://www.w3.org/2000/svg">
<path d="M31.7193 8.88267C30.1992 6.27802 28.1371 4.21592 25.5327 2.6959C22.9279 1.1758 20.0843 0.415947 16.9997 0.415947C13.9156 0.415947 11.071 1.17604 8.46672 2.6959C5.86208 4.21585 3.80013 6.27802 2.27996 8.88267C0.760011 11.4872 0 14.3314 0 17.4152C0 21.1195 1.08075 24.4505 3.24278 27.4091C5.40458 30.3679 8.19731 32.4152 11.6207 33.5514C12.0192 33.6254 12.3142 33.5734 12.506 33.3967C12.6979 33.2198 12.7937 32.9982 12.7937 32.7329C12.7937 32.6886 12.7899 32.2903 12.7826 31.5376C12.775 30.7849 12.7714 30.1282 12.7714 29.5679L12.2623 29.656C11.9377 29.7155 11.5282 29.7407 11.0338 29.7335C10.5396 29.7266 10.0266 29.6749 9.49545 29.5786C8.96407 29.4831 8.46982 29.2618 8.01233 28.915C7.55506 28.5682 7.23045 28.1143 7.03857 27.5539L6.81723 27.0445C6.66969 26.7054 6.43742 26.3287 6.12009 25.9158C5.80277 25.5025 5.48188 25.2223 5.15727 25.0748L5.00229 24.9638C4.89902 24.8901 4.80319 24.8012 4.71458 24.698C4.62604 24.5948 4.55975 24.4915 4.51549 24.3881C4.47114 24.2846 4.50789 24.1997 4.62612 24.1331C4.74435 24.0665 4.95802 24.0342 5.26805 24.0342L5.71059 24.1003C6.00574 24.1595 6.37082 24.3362 6.8063 24.6315C7.24154 24.9265 7.59933 25.3102 7.87975 25.7822C8.21933 26.3873 8.62845 26.8485 9.10827 27.1658C9.5877 27.4831 10.0711 27.6415 10.558 27.6415C11.0449 27.6415 11.4654 27.6046 11.8197 27.5312C12.1736 27.4574 12.5056 27.3464 12.8157 27.199C12.9485 26.2099 13.3101 25.45 13.9001 24.9189C13.0591 24.8305 12.303 24.6974 11.6314 24.5204C10.9601 24.3431 10.2665 24.0555 9.55088 23.6567C8.8349 23.2584 8.24096 22.7639 7.76889 22.1739C7.29674 21.5836 6.90925 20.8086 6.60697 19.8497C6.30453 18.8903 6.15327 17.7837 6.15327 16.5294C6.15327 14.7436 6.73629 13.2239 7.90208 11.9695C7.35597 10.6268 7.40753 9.12169 8.05691 7.45421C8.48486 7.32125 9.11951 7.42102 9.96054 7.75292C10.8017 8.08498 11.4176 8.36943 11.8088 8.60527C12.2 8.84103 12.5135 9.04083 12.7496 9.20286C14.1223 8.81933 15.5388 8.62752 16.9996 8.62752C18.4604 8.62752 19.8772 8.81933 21.2499 9.20286L22.091 8.67187C22.6662 8.31756 23.3454 7.99287 24.1271 7.69772C24.9092 7.40273 25.5072 7.32148 25.9206 7.45444C26.5844 9.122 26.6436 10.6271 26.0973 11.9697C27.263 13.2241 27.8463 14.7442 27.8463 16.5297C27.8463 17.7839 27.6945 18.8941 27.3925 19.8608C27.0901 20.8276 26.6993 21.6018 26.2199 22.185C25.7399 22.7681 25.1421 23.2588 24.4266 23.6569C23.7108 24.0554 23.0169 24.3431 22.3457 24.5203C21.6741 24.6975 20.918 24.8307 20.077 24.9193C20.8441 25.5831 21.2277 26.6309 21.2277 28.0622V32.7323C21.2277 32.9976 21.3199 33.2191 21.5046 33.3961C21.689 33.5727 21.9803 33.6248 22.3788 33.5507C25.8027 32.4147 28.5954 30.3673 30.7571 27.4085C32.9186 24.4499 33.9998 21.1189 33.9998 17.4146C33.999 14.3312 33.2386 11.4872 31.7193 8.88267Z" fill="#2d2d2d"/>
</svg>
