<svg width="46" height="77" viewBox="0 0 46 77" fill="none" xmlns="http://www.w3.org/2000/svg">
<path d="M13.3661 76.1062C13.3661 71.3853 13.435 66.8936 13.5728 62.631C13.7566 58.3684 13.9173 54.2892 14.0551 50.3933C14.1929 46.4974 14.2848 42.7619 14.3307 39.1869C14.3766 35.566 14.2618 32.0597 13.9862 28.6679C13.7566 28.8054 13.481 29.0346 13.1594 29.3555C12.8839 29.6763 12.5853 29.9971 12.2638 30.318C11.9882 30.6388 11.6896 30.9367 11.3681 31.2117C11.0466 31.4409 10.771 31.5555 10.5413 31.5555C10.1739 31.5555 9.82939 31.418 9.50787 31.143C9.23228 30.8221 9.09448 30.4326 9.09448 29.9742V29.768C9.09448 29.7221 9.11745 29.6534 9.16338 29.5617C9.57677 29.0575 10.059 28.2554 10.6102 27.1554C11.2073 26.0554 11.8274 24.9554 12.4705 23.8554C13.1594 22.7553 13.8025 21.7928 14.3996 20.9678C15.0426 20.097 15.5938 19.6615 16.0531 19.6615C16.5125 19.6615 16.8569 19.7761 17.0866 20.0053C17.3163 20.2345 17.5 20.5095 17.6378 20.8303C17.8215 21.1511 17.9823 21.4949 18.1201 21.8616C18.3038 22.2282 18.5794 22.5262 18.9468 22.7553C20.5085 21.8387 22.208 21.0595 24.0453 20.4178C25.8825 19.7303 27.7198 19.2719 29.5571 19.0428C31.4403 18.7678 33.2546 18.7219 35 18.9053C36.7454 19.0428 38.33 19.4553 39.7539 20.1428C41.2237 20.8303 42.4639 21.8157 43.4744 23.0991C44.4849 24.3824 45.1509 25.9866 45.4724 27.9117C45.4265 30.4326 44.6916 32.793 43.2677 34.993C41.8438 37.1931 40.0984 39.2098 38.0315 41.0431C35.9646 42.8307 33.7369 44.4349 31.3484 45.8557C28.96 47.2307 26.7552 48.4454 24.7342 49.4995C22.7132 50.5079 21.0597 51.31 19.7736 51.9058C18.4875 52.5017 17.8904 52.8683 17.9823 53.0058L17.0866 75.9687C17.0866 76.3354 16.9258 76.6104 16.6043 76.7937C16.2828 76.9312 15.9153 77 15.502 77C15.0886 76.9542 14.6752 76.8625 14.2618 76.725C13.8484 76.5417 13.5499 76.3354 13.3661 76.1062ZM17.9823 48.1933C20.3248 47.3224 22.7592 46.3141 25.2854 45.1682C27.8117 44.0224 30.1772 42.7161 32.3819 41.2494C34.5866 39.7369 36.5157 38.041 38.1693 36.1618C39.8688 34.2368 41.0171 32.0367 41.6142 29.5617C41.2467 26.9492 40.2132 25.07 38.5138 23.9241C36.8602 22.7324 34.8622 22.1366 32.5197 22.1366C30.2231 22.0907 27.7657 22.572 25.1476 23.5804C22.5755 24.5429 20.187 25.895 17.9823 27.6367V48.1933Z" fill="#2D2D2D"/>
<path d="M0 1.02769C0.136473 0.707961 0.40942 0.456749 0.81884 0.274049C1.27375 0.0913498 1.72866 0 2.18357 0C2.68397 0 3.11614 0.137025 3.48007 0.411074C3.844 0.639448 4.07145 1.02769 4.16243 1.57578L4.57185 5.34396C5.43618 5.16126 6.45973 4.79586 7.6425 4.24777C8.82527 3.65399 10.19 3.08306 11.7367 2.53496C13.3289 1.98686 15.103 1.53011 17.0592 1.16471C19.0153 0.799311 21.1988 0.753636 23.6099 1.02769C27.3401 1.75848 30.0469 2.62631 31.73 3.63115C33.4132 4.636 34.3003 5.75504 34.3913 6.98826C34.5277 8.17581 34.0273 9.47754 32.8901 10.8935C31.7983 12.2637 30.3198 13.6568 28.4547 15.0727C26.5895 16.4886 24.497 17.9274 22.1769 19.389C19.8569 20.8506 17.5823 22.2665 15.3532 23.6368C13.1697 24.9613 11.1226 26.2402 9.21194 27.4734C7.34681 28.661 5.93659 29.7572 4.98127 30.762L36.9843 50.0825C36.9843 50.8133 36.6886 51.5213 36.0972 52.2064C35.5058 52.8459 34.8234 53.1199 34.0501 53.0285L3.95772 35.6264V58.3725C3.41183 58.8293 2.93418 59.1261 2.52476 59.2632C2.16083 59.4002 1.86513 59.4459 1.63768 59.4002C1.41022 59.3545 1.20551 59.2175 1.02355 58.9891C0.841585 58.8064 0.682366 58.6009 0.545893 58.3725L0 1.02769ZM4.57185 10.4824C4.48087 11.3959 4.41264 12.4921 4.36714 13.771C4.32165 15.0499 4.29891 16.4201 4.29891 17.8817C4.29891 19.2976 4.29891 20.7136 4.29891 22.1295C4.29891 23.4997 4.29891 24.733 4.29891 25.8292C4.52636 25.6008 5.23147 25.1897 6.41424 24.5959C7.6425 23.9565 9.12096 23.18 10.8496 22.2665C12.5783 21.353 14.4207 20.3482 16.3768 19.252C18.3784 18.1101 20.2663 16.9454 22.0404 15.7578C23.8146 14.5703 25.3613 13.4056 26.6805 12.2637C28.0453 11.0762 28.9096 9.97996 29.2735 8.97512C29.6829 7.97027 29.4782 7.07961 28.6594 6.30313C27.886 5.48099 26.2711 4.84154 23.8146 4.38479C22.4499 4.29344 20.8349 4.33911 18.9698 4.52181C17.1501 4.70451 15.3078 5.04708 13.4426 5.5495C11.623 6.00625 9.91706 6.6457 8.32487 7.46784C6.73268 8.28999 5.48168 9.29484 4.57185 10.4824Z" fill="#3f72af"/>
</svg>
